<svg width="32" height="50" viewBox="0 0 32 50" fill="none" xmlns="http://www.w3.org/2000/svg">
<mask id="mask0_206_2689" style="mask-type:luminance" maskUnits="userSpaceOnUse" x="0" y="0" width="23" height="31">
<path d="M0 30.8477L22.0349 8.81235V0.000120163L0 22.0379V30.8477Z" fill="white"/>
</mask>
<g mask="url(#mask0_206_2689)">
<path d="M0 30.8477L22.0349 8.81235V0.000120163L0 22.0379V30.8477Z" fill="url(#paint0_linear_206_2689)"/>
</g>
<mask id="mask1_206_2689" style="mask-type:luminance" maskUnits="userSpaceOnUse" x="0" y="20" width="23" height="30">
<path d="M0 49.9995L22.0349 27.9617V20.8413L0 42.8766V49.9995Z" fill="white"/>
</mask>
<g mask="url(#mask1_206_2689)">
<path d="M0 49.9995L22.0349 27.9617V20.8413L0 42.8766V49.9995Z" fill="url(#paint1_linear_206_2689)"/>
</g>
<mask id="mask2_206_2689" style="mask-type:luminance" maskUnits="userSpaceOnUse" x="9" y="1" width="23" height="30">
<path d="M9.54688 30.8477L31.585 8.81235V1.40747L9.54688 23.4456V30.8477Z" fill="white"/>
</mask>
<g mask="url(#mask2_206_2689)">
<path d="M9.54688 30.8477L31.585 8.81235V1.40747L9.54688 23.4456V30.8477Z" fill="url(#paint2_linear_206_2689)"/>
</g>
<mask id="mask3_206_2689" style="mask-type:luminance" maskUnits="userSpaceOnUse" x="9" y="20" width="23" height="30">
<path d="M31.585 20.5598L9.54688 42.5951V50L31.585 27.9618V20.5598Z" fill="white"/>
</mask>
<g mask="url(#mask3_206_2689)">
<path d="M31.585 20.5598L9.54688 42.5951V50L31.585 27.9618V20.5598Z" fill="url(#paint3_linear_206_2689)"/>
</g>
<defs>
<linearGradient id="paint0_linear_206_2689" x1="-0.000410425" y1="15.4239" x2="22.0348" y2="15.4239" gradientUnits="userSpaceOnUse">
<stop stopColor="#4F46E5"/>
<stop offset="1" stopColor="#1D4ED8"/>
</linearGradient>
<linearGradient id="paint1_linear_206_2689" x1="-0.000410425" y1="35.4204" x2="22.0348" y2="35.4204" gradientUnits="userSpaceOnUse">
<stop stopColor="#4F46E5"/>
<stop offset="1" stopColor="#1D4ED8"/>
</linearGradient>
<linearGradient id="paint2_linear_206_2689" x1="9.54646" y1="16.1276" x2="31.585" y2="16.1276" gradientUnits="userSpaceOnUse">
<stop stopColor="#4F46E5"/>
<stop offset="1" stopColor="#1D4ED8"/>
</linearGradient>
<linearGradient id="paint3_linear_206_2689" x1="9.54646" y1="35.2799" x2="31.585" y2="35.2799" gradientUnits="userSpaceOnUse">
<stop stopColor="#4F46E5"/>
<stop offset="1" stopColor="#1D4ED8"/>
</linearGradient>
</defs>
</svg>
