<svg width="191" height="50" viewBox="0 0 191 50" fill="none" xmlns="http://www.w3.org/2000/svg">
<mask id="mask0_668_1535" style="mask-type:luminance" maskUnits="userSpaceOnUse" x="0" y="0" width="23" height="31">
<path d="M0 30.8477L22.0349 8.81235V0.00012101L0 22.0379V30.8477Z" fill="white"/>
</mask>
<g mask="url(#mask0_668_1535)">
<path d="M0 30.8477L22.0349 8.81235V0.00012101L0 22.0379V30.8477Z" fill="url(#paint0_linear_668_1535)"/>
</g>
<mask id="mask1_668_1535" style="mask-type:luminance" maskUnits="userSpaceOnUse" x="0" y="20" width="23" height="30">
<path d="M0 50L22.0349 27.9622V20.8418L0 42.8771V50Z" fill="white"/>
</mask>
<g mask="url(#mask1_668_1535)">
<path d="M0 50L22.0349 27.9622V20.8418L0 42.8771V50Z" fill="url(#paint1_linear_668_1535)"/>
</g>
<mask id="mask2_668_1535" style="mask-type:luminance" maskUnits="userSpaceOnUse" x="9" y="1" width="23" height="30">
<path d="M9.54639 30.8477L31.5846 8.81235V1.40747L9.54639 23.4456V30.8477Z" fill="white"/>
</mask>
<g mask="url(#mask2_668_1535)">
<path d="M9.54639 30.8477L31.5846 8.81235V1.40747L9.54639 23.4456V30.8477Z" fill="url(#paint2_linear_668_1535)"/>
</g>
<mask id="mask3_668_1535" style="mask-type:luminance" maskUnits="userSpaceOnUse" x="9" y="20" width="23" height="30">
<path d="M31.5846 20.5598L9.54639 42.5951V50L31.5846 27.9618V20.5598Z" fill="white"/>
</mask>
<g mask="url(#mask3_668_1535)">
<path d="M31.5846 20.5598L9.54639 42.5951V50L31.5846 27.9618V20.5598Z" fill="url(#paint3_linear_668_1535)"/>
</g>
<path d="M64.0637 19.348C63.9614 18.3168 63.5225 17.5156 62.7469 16.9446C61.9713 16.3736 60.9188 16.0881 59.5892 16.0881C58.6858 16.0881 57.923 16.2159 57.3009 16.4716C56.6787 16.7188 56.2014 17.0639 55.8691 17.5071C55.5452 17.9503 55.3833 18.4531 55.3833 19.0156C55.3662 19.4844 55.4642 19.8935 55.6773 20.2429C55.8989 20.5923 56.2014 20.8949 56.585 21.1506C56.9685 21.3977 57.4117 21.6151 57.9145 21.8026C58.4173 21.9815 58.9543 22.1349 59.5253 22.2628L61.8776 22.8253C63.0196 23.081 64.0679 23.4219 65.0225 23.848C65.977 24.2741 66.8037 24.7983 67.5026 25.4205C68.2014 26.0426 68.7426 26.7756 69.1262 27.6193C69.5182 28.4631 69.7185 29.4304 69.727 30.5213C69.7185 32.1236 69.3094 33.5128 68.4997 34.6889C67.6986 35.8565 66.5395 36.7642 65.0225 37.4119C63.5139 38.0511 61.6943 38.3707 59.5637 38.3707C57.45 38.3707 55.6091 38.0469 54.0409 37.3991C52.4813 36.7514 51.2625 35.7926 50.3847 34.5227C49.5154 33.2443 49.0594 31.6634 49.0168 29.7798H54.3733C54.433 30.6577 54.6844 31.3906 55.1276 31.9787C55.5793 32.5582 56.1801 32.9972 56.9301 33.2955C57.6887 33.5852 58.5452 33.7301 59.4997 33.7301C60.4372 33.7301 61.2512 33.5937 61.9415 33.321C62.6404 33.0483 63.1816 32.669 63.5651 32.1832C63.9486 31.6974 64.1404 31.1392 64.1404 30.5085C64.1404 29.9205 63.9656 29.4261 63.6162 29.0256C63.2753 28.625 62.7725 28.2841 62.1077 28.0028C61.4514 27.7216 60.646 27.4659 59.6915 27.2358L56.8406 26.5199C54.6333 25.983 52.8904 25.1435 51.6119 24.0014C50.3335 22.8594 49.6986 21.321 49.7071 19.3864C49.6986 17.8011 50.1205 16.4162 50.9727 15.2315C51.8335 14.0469 53.0139 13.1222 54.5139 12.4574C56.0139 11.7926 57.7185 11.4602 59.6276 11.4602C61.5708 11.4602 63.2668 11.7926 64.7156 12.4574C66.173 13.1222 67.3066 14.0469 68.1162 15.2315C68.9259 16.4162 69.3435 17.7884 69.3691 19.348H64.0637ZM94.6295 11.8182V38H89.8483L78.4576 21.5213H78.2659V38H72.7304V11.8182H77.5883L88.8895 28.2841H89.1196V11.8182H94.6295ZM108.966 11.8182H114.438V30.0739C114.438 31.7614 114.058 33.2273 113.3 34.4716C112.55 35.7159 111.506 36.6747 110.168 37.348C108.83 38.0213 107.274 38.358 105.501 38.358C103.925 38.358 102.493 38.081 101.206 37.527C99.9276 36.9645 98.9134 36.1122 98.1634 34.9702C97.4134 33.8196 97.0427 32.375 97.0512 30.6364H102.561C102.578 31.3267 102.719 31.919 102.983 32.4134C103.256 32.8991 103.626 33.2741 104.095 33.5384C104.573 33.794 105.135 33.9219 105.783 33.9219C106.465 33.9219 107.04 33.777 107.509 33.4872C107.986 33.1889 108.348 32.7543 108.595 32.1832C108.842 31.6122 108.966 30.9091 108.966 30.0739V11.8182ZM142.354 24.9091C142.354 27.7642 141.813 30.1932 140.73 32.196C139.656 34.1989 138.191 35.7287 136.333 36.7855C134.483 37.8338 132.404 38.358 130.094 38.358C127.767 38.358 125.679 37.8295 123.83 36.7727C121.98 35.7159 120.519 34.1861 119.445 32.1832C118.371 30.1804 117.834 27.7557 117.834 24.9091C117.834 22.054 118.371 19.625 119.445 17.6222C120.519 15.6193 121.98 14.0937 123.83 13.0455C125.679 11.9886 127.767 11.4602 130.094 11.4602C132.404 11.4602 134.483 11.9886 136.333 13.0455C138.191 14.0937 139.656 15.6193 140.73 17.6222C141.813 19.625 142.354 22.054 142.354 24.9091ZM136.742 24.9091C136.742 23.0597 136.465 21.5 135.911 20.2301C135.365 18.9602 134.594 17.9972 133.597 17.3409C132.6 16.6847 131.432 16.3565 130.094 16.3565C128.756 16.3565 127.588 16.6847 126.591 17.3409C125.594 17.9972 124.818 18.9602 124.264 20.2301C123.719 21.5 123.446 23.0597 123.446 24.9091C123.446 26.7585 123.719 28.3182 124.264 29.5881C124.818 30.858 125.594 31.821 126.591 32.4773C127.588 33.1335 128.756 33.4616 130.094 33.4616C131.432 33.4616 132.6 33.1335 133.597 32.4773C134.594 31.821 135.365 30.858 135.911 29.5881C136.465 28.3182 136.742 26.7585 136.742 24.9091ZM145.734 38V11.8182H156.217C158.144 11.8182 159.75 12.1037 161.037 12.6747C162.324 13.2457 163.291 14.0384 163.939 15.0526C164.587 16.0582 164.911 17.2173 164.911 18.5298C164.911 19.5526 164.706 20.4517 164.297 21.2273C163.888 21.9943 163.325 22.625 162.609 23.1193C161.902 23.6051 161.092 23.9503 160.18 24.1548V24.4105C161.178 24.4531 162.111 24.7344 162.98 25.2543C163.858 25.7741 164.57 26.5028 165.115 27.4403C165.661 28.3693 165.933 29.4773 165.933 30.7642C165.933 32.1534 165.588 33.3935 164.898 34.4844C164.216 35.5668 163.206 36.4233 161.868 37.054C160.53 37.6847 158.881 38 156.921 38H145.734ZM151.27 33.4744H155.783C157.325 33.4744 158.45 33.1804 159.158 32.5923C159.865 31.9957 160.219 31.2031 160.219 30.2145C160.219 29.4901 160.044 28.8509 159.695 28.2969C159.345 27.7429 158.847 27.3082 158.199 26.9929C157.56 26.6776 156.797 26.5199 155.911 26.5199H151.27V33.4744ZM151.27 22.7741H155.374C156.132 22.7741 156.805 22.642 157.394 22.3778C157.99 22.1051 158.459 21.7216 158.8 21.2273C159.149 20.733 159.324 20.1406 159.324 19.4503C159.324 18.5043 158.987 17.7415 158.314 17.1619C157.649 16.5824 156.703 16.2926 155.476 16.2926H151.27V22.7741ZM183.018 19.348C182.916 18.3168 182.477 17.5156 181.702 16.9446C180.926 16.3736 179.873 16.0881 178.544 16.0881C177.641 16.0881 176.878 16.2159 176.256 16.4716C175.633 16.7188 175.156 17.0639 174.824 17.5071C174.5 17.9503 174.338 18.4531 174.338 19.0156C174.321 19.4844 174.419 19.8935 174.632 20.2429C174.854 20.5923 175.156 20.8949 175.54 21.1506C175.923 21.3977 176.366 21.6151 176.869 21.8026C177.372 21.9815 177.909 22.1349 178.48 22.2628L180.832 22.8253C181.974 23.081 183.023 23.4219 183.977 23.848C184.932 24.2741 185.758 24.7983 186.457 25.4205C187.156 26.0426 187.697 26.7756 188.081 27.6193C188.473 28.4631 188.673 29.4304 188.682 30.5213C188.673 32.1236 188.264 33.5128 187.454 34.6889C186.653 35.8565 185.494 36.7642 183.977 37.4119C182.469 38.0511 180.649 38.3707 178.518 38.3707C176.405 38.3707 174.564 38.0469 172.996 37.3991C171.436 36.7514 170.217 35.7926 169.339 34.5227C168.47 33.2443 168.014 31.6634 167.971 29.7798H173.328C173.388 30.6577 173.639 31.3906 174.082 31.9787C174.534 32.5582 175.135 32.9972 175.885 33.2955C176.643 33.5852 177.5 33.7301 178.454 33.7301C179.392 33.7301 180.206 33.5937 180.896 33.321C181.595 33.0483 182.136 32.669 182.52 32.1832C182.903 31.6974 183.095 31.1392 183.095 30.5085C183.095 29.9205 182.92 29.4261 182.571 29.0256C182.23 28.625 181.727 28.2841 181.062 28.0028C180.406 27.7216 179.601 27.4659 178.646 27.2358L175.795 26.5199C173.588 25.983 171.845 25.1435 170.567 24.0014C169.288 22.8594 168.653 21.321 168.662 19.3864C168.653 17.8011 169.075 16.4162 169.927 15.2315C170.788 14.0469 171.969 13.1222 173.469 12.4574C174.969 11.7926 176.673 11.4602 178.582 11.4602C180.525 11.4602 182.221 11.7926 183.67 12.4574C185.128 13.1222 186.261 14.0469 187.071 15.2315C187.881 16.4162 188.298 17.7884 188.324 19.348H183.018Z" fill="#0A0A0A"/>
<defs>
<linearGradient id="paint0_linear_668_1535" x1="-0.000410425" y1="15.4239" x2="22.0348" y2="15.4239" gradientUnits="userSpaceOnUse">
<stop stopColor="#4F46E5"/>
<stop offset="1" stopColor="#1D4ED8"/>
</linearGradient>
<linearGradient id="paint1_linear_668_1535" x1="-0.000410425" y1="35.4209" x2="22.0348" y2="35.4209" gradientUnits="userSpaceOnUse">
<stop stopColor="#4F46E5"/>
<stop offset="1" stopColor="#1D4ED8"/>
</linearGradient>
<linearGradient id="paint2_linear_668_1535" x1="9.54598" y1="16.1276" x2="31.5845" y2="16.1276" gradientUnits="userSpaceOnUse">
<stop stopColor="#4F46E5"/>
<stop offset="1" stopColor="#1D4ED8"/>
</linearGradient>
<linearGradient id="paint3_linear_668_1535" x1="9.54598" y1="35.2799" x2="31.5845" y2="35.2799" gradientUnits="userSpaceOnUse">
<stop stopColor="#4F46E5"/>
<stop offset="1" stopColor="#1D4ED8"/>
</linearGradient>
</defs>
</svg>
