<svg width="21" height="32" viewBox="0 0 21 32" fill="none" xmlns="http://www.w3.org/2000/svg">
<mask id="mask0_208_1342" style="mask-type:luminance" maskUnits="userSpaceOnUse" x="0" y="0" width="15" height="20">
<path d="M0 19.7427L14.1023 5.64008V0.000253563L0 14.1044V19.7427Z" fill="white"/>
</mask>
<g mask="url(#mask0_208_1342)">
<path d="M0 19.7427L14.1023 5.64008V0.000253563L0 14.1044V19.7427Z" fill="url(#paint0_linear_208_1342)"/>
</g>
<mask id="mask1_208_1342" style="mask-type:luminance" maskUnits="userSpaceOnUse" x="0" y="13" width="15" height="19">
<path d="M0 31.9995L14.1023 17.8953V13.3383L0 27.4408V31.9995Z" fill="white"/>
</mask>
<g mask="url(#mask1_208_1342)">
<path d="M0 31.9995L14.1023 17.8953V13.3383L0 27.4408V31.9995Z" fill="url(#paint1_linear_208_1342)"/>
</g>
<mask id="mask2_208_1342" style="mask-type:luminance" maskUnits="userSpaceOnUse" x="6" y="0" width="15" height="20">
<path d="M6.10938 19.7422L20.2138 5.63959V0.900471L6.10938 15.0049V19.7422Z" fill="white"/>
</mask>
<g mask="url(#mask2_208_1342)">
<path d="M6.10938 19.7422L20.2138 5.63959V0.900471L6.10938 15.0049V19.7422Z" fill="url(#paint2_linear_208_1342)"/>
</g>
<mask id="mask3_208_1342" style="mask-type:luminance" maskUnits="userSpaceOnUse" x="6" y="13" width="15" height="19">
<path d="M20.2138 13.1583L6.10938 27.2609V32L20.2138 17.8956V13.1583Z" fill="white"/>
</mask>
<g mask="url(#mask3_208_1342)">
<path d="M20.2138 13.1583L6.10938 27.2609V32L20.2138 17.8956V13.1583Z" fill="url(#paint3_linear_208_1342)"/>
</g>
<defs>
<linearGradient id="paint0_linear_208_1342" x1="-0.000262672" y1="9.87146" x2="14.1023" y2="9.87146" gradientUnits="userSpaceOnUse">
<stop stopColor="#4F46E5"/>
<stop offset="1" stopColor="#1D4ED8"/>
</linearGradient>
<linearGradient id="paint1_linear_208_1342" x1="-0.000262672" y1="22.6689" x2="14.1023" y2="22.6689" gradientUnits="userSpaceOnUse">
<stop stopColor="#4F46E5"/>
<stop offset="1" stopColor="#1D4ED8"/>
</linearGradient>
<linearGradient id="paint2_linear_208_1342" x1="6.10911" y1="10.3213" x2="20.2138" y2="10.3213" gradientUnits="userSpaceOnUse">
<stop stopColor="#4F46E5"/>
<stop offset="1" stopColor="#1D4ED8"/>
</linearGradient>
<linearGradient id="paint3_linear_208_1342" x1="6.10911" y1="22.5791" x2="20.2138" y2="22.5791" gradientUnits="userSpaceOnUse">
<stop stopColor="#4F46E5"/>
<stop offset="1" stopColor="#1D4ED8"/>
</linearGradient>
</defs>
</svg>
